<svg version="1.1" xmlns="http://www.w3.org/2000/svg" xmlns:xlink="http://www.w3.org/1999/xlink" width="76.03968" height="34.20167" viewBox="0,0,76.03968,34.20167"><defs><linearGradient x1="429.38091" y1="512.55392" x2="429.38091" y2="545.59689" gradientUnits="userSpaceOnUse" id="color-1"><stop offset="0" stop-color="#75ed2b"/><stop offset="1" stop-color="#811150"/></linearGradient></defs><g transform="translate(-213.91019,-166.27045)"><g data-paper-data="{&quot;isPaintingLayer&quot;:true}" fill="url(#color-1)" fill-rule="nonzero" stroke="#ffffff" stroke-width="1.15823" stroke-linecap="butt" stroke-linejoin="miter" stroke-miterlimit="10" stroke-dasharray="" stroke-dashoffset="0" style="mix-blend-mode: normal"><path d="M266.47668,187.03254c0,0 -31.13821,0.0071 -45.28015,0.0071c-3.70445,0 -6.70723,-1.6177 -6.70723,-3.61259c0,-1.99526 3.00279,-3.6123 6.70723,-3.6123c11.85644,0 45.24375,-0.00746 45.24375,-0.00746c0,0 -2.24149,-1.22178 -12.58214,-6.791c-2.61949,-1.41096 -2.61949,-3.69804 0,-5.10863c2.62085,-1.41059 6.86656,-1.41096 9.4855,0c8.38479,4.51548 24.06289,12.96084 24.06289,12.96084c2.61895,1.41096 2.61895,3.69833 0,5.10863c0,0 -13.52978,7.28758 -23.8703,12.85717c-2.62085,1.41162 -6.8671,1.41162 -9.4855,0c-2.61963,-1.41067 -2.61963,-3.6984 0,-5.10797c8.38493,-4.51753 12.42595,-6.69378 12.42595,-6.69378z"/></g></g></svg>